<svg width="1512" height="320" viewBox="0 0 1512 320" fill="none" xmlns="http://www.w3.org/2000/svg">
<path d="M-10 224L40.7333 229.3C91.4667 235 192.933 245 294.4 224C395.867 203 497.333 149 598.8 149.3C700.267 149 801.733 203 903.2 229.3C1004.67 256 1106.13 256 1207.6 240C1309.07 224 1410.53 192 1461.27 176L1512 160V0H1461.27C1410.53 0 1309.07 0 1207.6 0C1106.13 0 1004.67 0 903.2 0C801.733 0 700.267 0 598.8 0C497.333 0 395.867 0 294.4 0C192.933 0 91.4667 0 40.7333 0H-10V224Z" fill="#1E1B4B"/>
</svg>
